name N:\Shared_Data\HIL\Data Collection\CoPD-X-MoreData\processed\iteration012\grf0012.mot
datacolumns 19
datarows 106
range 2322.651172 2322.826168
endheader
time	ground_force1_vx	ground_force1_vy	ground_force1_vz	ground_force1_px	ground_force1_py	ground_force1_pz	ground_force2_vx	ground_force2_vy	ground_force2_vz	ground_force2_px	ground_force2_py	ground_force2_pz	ground_torque1_x	ground_torque1_y	ground_torque1_z	ground_torque2_x	ground_torque2_y	ground_torque2_z	
2322.651172	0	0	0	0	0	0	48.96199066	768.6749187	-53.2746809	5.67461569	0	-0.0315274722	0	0	0	0	-20.76733922	0	
2322.652832	0	0	0	0	0	0	48.47316138	769.3289567	-53.26820953	5.6749402	0	-0.03155939793	0	0	0	0	-20.6919889	0	
2322.654502	0	0	0	0	0	0	47.99077448	769.9135659	-53.25627458	5.675264529	0	-0.0315909871	0	0	0	0	-20.61498196	0	
2322.656172	0	0	0	0	0	0	47.51486637	770.4289714	-53.23860842	5.675587821	0	-0.03162229129	0	0	0	0	-20.53621647	0	
2322.657836	0	0	0	0	0	0	47.0454455	770.8754935	-53.21494884	5.675909247	0	-0.03165336121	0	0	0	0	-20.45559148	0	
2322.659506	0	0	0	0	0	0	46.58249376	771.2535463	-53.18504186	5.676228013	0	-0.03168424625	0	0	0	0	-20.37300824	0	
2322.661168	0	0	0	0	0	0	46.1259679	771.5636377	-53.14864437	5.676543365	0	-0.0317149941	0	0	0	0	-20.2883714	0	
2322.662833	0	0	0	0	0	0	45.67580092	771.8063672	-53.10552673	5.676854596	0	-0.03174565032	0	0	0	0	-20.2015901	0	
2322.664506	0	0	0	0	0	0	45.23190349	771.9824245	-53.05547513	5.677161053	0	-0.03177625795	0	0	0	0	-20.11257904	0	
2322.666165	0	0	0	0	0	0	44.79416541	772.0925874	-52.99829389	5.677462144	0	-0.03180685718	0	0	0	0	-20.02125945	0	
2322.667839	0	0	0	0	0	0	44.36245701	772.1377187	-52.93380749	5.677757339	0	-0.03183748497	0	0	0	0	-19.92755992	0	
2322.669504	0	0	0	0	0	0	43.93663059	772.1187638	-52.86186248	5.67804618	0	-0.03186817482	0	0	0	0	-19.83141726	0	
2322.671172	0	0	0	0	0	0	43.51652179	772.0367472	-52.78232921	5.678328281	0	-0.03189895644	0	0	0	0	-19.73277718	0	
2322.672836	0	0	0	0	0	0	43.10195102	771.8927692	-52.69510324	5.678603332	0	-0.03192985559	0	0	0	0	-19.63159485	0	
2322.674498	0	0	0	0	0	0	42.6927248	771.6880023	-52.6001067	5.678871104	0	-0.03196089383	0	0	0	0	-19.5278355	0	
2322.676172	0	0	0	0	0	0	42.28863711	771.4236871	-52.49728932	5.679131449	0	-0.03199208845	0	0	0	0	-19.42147476	0	
2322.677835	0	0	0	0	0	0	41.88947069	771.1011286	-52.38662926	5.679384301	0	-0.0320234523	0	0	0	0	-19.31249903	0	
2322.679513	0	0	0	0	0	0	41.49499833	770.7216917	-52.26813377	5.67962968	0	-0.03205499381	0	0	0	0	-19.20090566	0	
2322.681173	0	0	0	0	0	0	41.10498406	770.2867974	-52.14183956	5.679867687	0	-0.03208671693	0	0	0	0	-19.08670311	0	
2322.682834	0	0	0	0	0	0	40.71918437	769.7979185	-52.00781297	5.680098508	0	-0.03211862121	0	0	0	0	-18.969911	0	
2322.684503	0	0	0	0	0	0	40.33734934	769.2565751	-51.86615	5.68032241	0	-0.03215070189	0	0	0	0	-18.85056001	0	
2322.68617	0	0	0	0	0	0	39.95922371	768.6643305	-51.716976	5.680539738	0	-0.03218295004	0	0	0	0	-18.72869179	0	
2322.687831	0	0	0	0	0	0	39.58454793	768.022787	-51.56044526	5.680750913	0	-0.03221535272	0	0	0	0	-18.60435875	0	
2322.689505	0	0	0	0	0	0	39.21305915	767.3335817	-51.39674038	5.680956432	0	-0.03224789325	0	0	0	0	-18.47762373	0	
2322.691164	0	0	0	0	0	0	38.84449213	766.5983827	-51.22607145	5.681156856	0	-0.03228055148	0	0	0	0	-18.34855967	0	
2322.692838	0	0	0	0	0	0	38.47858011	765.8188845	-51.04867506	5.681352814	0	-0.03231330408	0	0	0	0	-18.21724918	0	
2322.6945	0	0	0	0	0	0	38.11505567	764.996805	-50.86481312	5.681544989	0	-0.03234612489	0	0	0	0	-18.08378403	0	
2322.696172	0	0	0	0	0	0	37.75365145	764.1338811	-50.67477162	5.68173412	0	-0.03237898534	0	0	0	0	-17.94826463	0	
2322.697837	0	0	0	0	0	0	37.39410094	763.2318654	-50.47885916	5.681920989	0	-0.03241185482	0	0	0	0	-17.81079943	0	
2322.699499	0	0	0	0	0	0	37.03613909	762.292523	-50.27740542	5.682106417	0	-0.03244470118	0	0	0	0	-17.67150428	0	
2322.701173	0	0	0	0	0	0	36.67950299	761.3176278	-50.07075949	5.68229126	0	-0.03247749112	0	0	0	0	-17.53050174	0	
2322.70284	0	0	0	0	0	0	36.32393247	760.3089602	-49.8592881	5.682476393	0	-0.03251019071	0	0	0	0	-17.38792043	0	
2322.704499	0	0	0	0	0	0	35.96917062	759.2683032	-49.64337383	5.68266271	0	-0.0325427659	0	0	0	0	-17.24389424	0	
2322.706167	0	0	0	0	0	0	35.61496438	758.1974405	-49.4234132	5.682851113	0	-0.03257518297	0	0	0	0	-17.09856161	0	
2322.707839	0	0	0	0	0	0	35.26106496	757.0981539	-49.19981471	5.683042504	0	-0.03260740907	0	0	0	0	-16.95206479	0	
2322.709499	0	0	0	0	0	0	34.90722839	755.9722205	-48.97299686	5.683237773	0	-0.03263941275	0	0	0	0	-16.80454908	0	
2322.71117	0	0	0	0	0	0	34.55321588	754.8214111	-48.74338614	5.683437799	0	-0.03267116439	0	0	0	0	-16.65616207	0	
2322.71284	0	0	0	0	0	0	34.19879431	753.6474877	-48.51141502	5.683643432	0	-0.03270263674	0	0	0	0	-16.5070529	0	
2322.714499	0	0	0	0	0	0	33.84373656	752.4522022	-48.27751988	5.68385549	0	-0.03273380539	0	0	0	0	-16.35737156	0	
2322.716167	0	0	0	0	0	0	33.48782194	751.2372943	-48.04213905	5.684074752	0	-0.03276464921	0	0	0	0	-16.20726815	0	
2322.717832	0	0	0	0	0	0	33.13083649	750.0044901	-47.80571079	5.684301946	0	-0.0327951508	0	0	0	0	-16.05689225	0	
2322.719498	0	0	0	0	0	0	32.77257334	748.7555011	-47.56867133	5.684537747	0	-0.03282529685	0	0	0	0	-15.90639227	0	
2322.721173	0	0	0	0	0	0	32.41283301	747.4920223	-47.33145299	5.684782768	0	-0.03285507857	0	0	0	0	-15.75591483	0	
2322.722832	0	0	0	0	0	0	32.05142371	746.2157316	-47.09448225	5.685037552	0	-0.03288449196	0	0	0	0	-15.60560424	0	
2322.724501	0	0	0	0	0	0	31.68816162	744.9282886	-46.85817805	5.685302571	0	-0.03291353814	0	0	0	0	-15.45560192	0	
2322.726169	0	0	0	0	0	0	31.32287112	743.6313335	-46.62295001	5.685578216	0	-0.03294222356	0	0	0	0	-15.30604597	0	
2322.727831	0	0	0	0	0	0	30.95538506	742.3264869	-46.38919679	5.685864796	0	-0.03297056022	0	0	0	0	-15.15707074	0	
2322.729515	0	0	0	0	0	0	30.58554499	741.0153481	-46.1573046	5.686162532	0	-0.03299856577	0	0	0	0	-15.00880638	0	
2322.731164	0	0	0	0	0	0	30.21320134	739.6994954	-45.92764568	5.686471557	0	-0.03302626362	0	0	0	0	-14.86137855	0	
2322.732831	0	0	0	0	0	0	29.83821369	738.3804846	-45.70057703	5.68679191	0	-0.03305368296	0	0	0	0	-14.71490808	0	
2322.734499	0	0	0	0	0	0	29.4604509	737.059849	-45.47643914	5.687123538	0	-0.03308085868	0	0	0	0	-14.56951068	0	
2322.736165	0	0	0	0	0	0	29.07979133	735.7390987	-45.25555491	5.687466294	0	-0.03310783133	0	0	0	0	-14.42529673	0	
2322.737833	0	0	0	0	0	0	28.69612301	734.4197198	-45.03822863	5.687819936	0	-0.03313464691	0	0	0	0	-14.28237105	0	
2322.739501	0	0	0	0	0	0	28.30934381	733.1031744	-44.82474516	5.68818413	0	-0.03316135665	0	0	0	0	-14.14083273	0	
2322.741169	0	0	0	0	0	0	27.9193616	731.7908999	-44.6153692	5.688558452	0	-0.03318801675	0	0	0	0	-14.00077497	0	
2322.74284	0	0	0	0	0	0	27.52609441	730.4843082	-44.41034467	5.688942389	0	-0.033214688	0	0	0	0	-13.86228496	0	
2322.744501	0	0	0	0	0	0	27.12947054	729.184786	-44.20989427	5.689335344	0	-0.03324143538	0	0	0	0	-13.72544381	0	
2322.746165	0	0	0	0	0	0	26.72942871	727.8936937	-44.01421914	5.689736639	0	-0.03326832764	0	0	0	0	-13.59032641	0	
2322.747834	0	0	0	0	0	0	26.32591816	726.6123655	-43.82349869	5.690145519	0	-0.03329543674	0	0	0	0	-13.45700144	0	
2322.749502	0	0	0	0	0	0	25.91889874	725.3421087	-43.6378905	5.690561163	0	-0.03332283733	0	0	0	0	-13.3255313	0	
2322.751167	0	0	0	0	0	0	25.50834098	724.0842033	-43.45753038	5.690982683	0	-0.03335060614	0	0	0	0	-13.19597215	0	
2322.752834	0	0	0	0	0	0	25.09422608	722.8399019	-43.28253258	5.691409136	0	-0.03337882133	0	0	0	0	-13.06837387	0	
2322.754497	0	0	0	0	0	0	24.67654596	721.6104293	-43.11299005	5.69183953	0	-0.03340756187	0	0	0	0	-12.94278015	0	
2322.756168	0	0	0	0	0	0	24.2553032	720.3969817	-42.94897485	5.692272829	0	-0.03343690678	0	0	0	0	-12.81922854	0	
2322.757833	0	0	0	0	0	0	23.83051095	719.2007272	-42.79053865	5.692707967	0	-0.03346693447	0	0	0	0	-12.69775053	0	
2322.759497	0	0	0	0	0	0	23.40219281	718.0228047	-42.63771334	5.693143853	0	-0.033497722	0	0	0	0	-12.57837172	0	
2322.761165	0	0	0	0	0	0	22.97038264	716.8643243	-42.49051167	5.693579379	0	-0.03352934435	0	0	0	0	-12.46111193	0	
2322.762837	0	0	0	0	0	0	22.53512433	715.7263666	-42.34892807	5.694013431	0	-0.03356187365	0	0	0	0	-12.34598537	0	
2322.764508	0	0	0	0	0	0	22.09647152	714.6099828	-42.21293943	5.694444898	0	-0.03359537852	0	0	0	0	-12.23300089	0	
2322.766165	0	0	0	0	0	0	21.65448725	713.5161941	-42.082506	5.69487268	0	-0.03362992329	0	0	0	0	-12.12216215	0	
2322.767839	0	0	0	0	0	0	21.20924355	712.4459923	-41.95757231	5.695295698	0	-0.03366556735	0	0	0	0	-12.01346792	0	
2322.769502	0	0	0	0	0	0	20.76082098	711.4003389	-41.83806821	5.695712903	0	-0.03370236448	0	0	0	0	-11.90691234	0	
2322.771166	0	0	0	0	0	0	20.30930814	710.3801656	-41.72390982	5.696123286	0	-0.03374036222	0	0	0	0	-11.80248518	0	
2322.772835	0	0	0	0	0	0	19.85480111	709.3863742	-41.61500064	5.69652588	0	-0.03377960127	0	0	0	0	-11.70017222	0	
2322.774501	0	0	0	0	0	0	19.39740279	708.4198364	-41.51123256	5.696919779	0	-0.03382011497	0	0	0	0	-11.59995549	0	
2322.776166	0	0	0	0	0	0	18.9372223	707.4813945	-41.41248701	5.697304135	0	-0.03386192881	0	0	0	0	-11.50181368	0	
2322.777833	0	0	0	0	0	0	18.47437425	706.5718607	-41.31863602	5.69767817	0	-0.03390506001	0	0	0	0	-11.40572242	0	
2322.77951	0	0	0	0	0	0	18.00897802	705.6920183	-41.22954333	5.698041185	0	-0.03394951716	0	0	0	0	-11.31165467	0	
2322.781164	0	0	0	0	0	0	17.54115698	704.8426213	-41.14506551	5.698392558	0	-0.03399529995	0	0	0	0	-11.21958104	0	
2322.782832	0	0	0	0	0	0	17.07103769	704.024395	-41.06505301	5.698731758	0	-0.03404239891	0	0	0	0	-11.12947012	0	
2322.784505	0	0	0	0	0	0	16.59874912	703.2380363	-40.98935129	5.699058342	0	-0.0340907953	0	0	0	0	-11.04128885	0	
2322.786164	0	0	0	0	0	0	16.12442173	702.4842143	-40.91780185	5.699371964	0	-0.03414046107	0	0	0	0	-10.95500283	0	
2322.787833	0	0	0	0	0	0	15.64818669	701.7635708	-40.85024328	5.699672373	0	-0.03419135881	0	0	0	0	-10.87057666	0	
2322.7895	0	0	0	0	0	0	15.17017495	701.0767206	-40.78651227	5.69995942	0	-0.03424344189	0	0	0	0	-10.78797422	0	
2322.791168	0	0	0	0	0	0	14.6905164	700.4242523	-40.72644462	5.700233054	0	-0.03429665463	0	0	0	0	-10.70715901	0	
2322.792833	0	0	0	0	0	0	14.20933897	699.8067286	-40.66987613	5.700493326	0	-0.03435093249	0	0	0	0	-10.62809439	0	
2322.794504	0	0	0	0	0	0	13.72676772	699.2246873	-40.61664355	5.700740387	0	-0.03440620248	0	0	0	0	-10.55074389	0	
2322.796165	0	0	0	0	0	0	13.242924	698.6786415	-40.56658542	5.700974486	0	-0.03446238346	0	0	0	0	-10.47507149	0	
2322.797836	0	0	0	0	0	0	12.75792454	698.1690805	-40.51954286	5.701195969	0	-0.03451938666	0	0	0	0	-10.40104178	0	
2322.799506	0	0	0	0	0	0	12.27188059	697.6964704	-40.47536037	5.701405275	0	-0.03457711619	0	0	0	0	-10.3286203	0	
2322.801163	0	0	0	0	0	0	11.78489711	697.2612543	-40.43388649	5.701602931	0	-0.03463546961	0	0	0	0	-10.25777365	0	
2322.802832	0	0	0	0	0	0	11.2970719	696.8638534	-40.39497445	5.701789551	0	-0.0346943386	0	0	0	0	-10.18846977	0	
2322.804503	0	0	0	0	0	0	10.80849485	696.5046669	-40.35848276	5.701965826	0	-0.03475360966	0	0	0	0	-10.12067805	0	
2322.80617	0	0	0	0	0	0	10.31924715	696.1840731	-40.32427575	5.702132523	0	-0.03481316483	0	0	0	0	-10.05436954	0	
2322.807838	0	0	0	0	0	0	9.829400638	695.9024295	-40.292224	5.702290473	0	-0.03487288251	0	0	0	0	-9.989517051	0	
2322.809502	0	0	0	0	0	0	9.339017076	695.6600731	-40.26220479	5.70244057	0	-0.03493263826	0	0	0	0	-9.926095305	0	
2322.811166	0	0	0	0	0	0	8.848147603	695.457321	-40.23410239	5.702583759	0	-0.03499230569	0	0	0	0	-9.864081003	0	
2322.812842	0	0	0	0	0	0	8.356832174	695.2944704	-40.20780839	5.70272103	0	-0.03505175731	0	0	0	0	-9.803452908	0	
2322.814503	0	0	0	0	0	0	7.865099103	695.1717987	-40.18322197	5.702853408	0	-0.03511086544	0	0	0	0	-9.744191892	0	
2322.816164	0	0	0	0	0	0	7.372964674	695.0895641	-40.16025	5.702981948	0	-0.03516950316	0	0	0	0	-9.686280958	0	
2322.817831	0	0	0	0	0	0	6.880432832	695.0480049	-40.1388073	5.703107724	0	-0.03522754514	0	0	0	0	-9.629705234	0	
2322.819505	0	0	0	0	0	0	6.387494966	695.0473398	-40.11881665	5.703231819	0	-0.03528486865	0	0	0	0	-9.574451948	0	
2322.821165	0	0	0	0	0	0	5.894129776	695.087768	-40.10020893	5.70335532	0	-0.03534135436	0	0	0	0	-9.520510371	0	
2322.822835	0	0	0	0	0	0	5.400303232	695.1694683	-40.08292312	5.703479305	0	-0.03539688731	0	0	0	0	-9.467871737	0	
2322.824503	0	0	0	0	0	0	4.905968625	695.292599	-40.06690633	5.703604838	0	-0.03545135769	0	0	0	0	-9.416529138	0	
2322.826168	0	0	0	0	0	0	4.411066718	695.4572976	-40.0521138	5.703732959	0	-0.03550466167	0	0	0	0	-9.366477399	0	
